<?xml version="1.0" standalone="no"?>
<!DOCTYPE svg PUBLIC "-//W3C//DTD SVG 20010904//EN"
 "http://www.w3.org/TR/2001/REC-SVG-20010904/DTD/svg10.dtd">
<svg version="1.0" xmlns="http://www.w3.org/2000/svg"
 width="300.000000pt" height="200.000000pt" viewBox="0 0 300.000000 200.000000"
 preserveAspectRatio="xMidYMid meet">

<g transform="translate(0.000000,200.000000) scale(0.100000,-0.100000)"
fill="#000000" stroke="none">
<path d="M458 1890 c-97 -52 -179 -259 -193 -489 -4 -60 -2 -65 40 -129 50
-78 137 -166 178 -181 36 -14 77 -14 77 -1 0 6 10 4 23 -4 12 -7 50 -16 85
-20 58 -5 63 -4 70 17 20 54 -1 527 -22 527 -35 0 -49 -62 -19 -79 28 -15 1
-58 -52 -81 -31 -13 -45 -25 -45 -39 0 -11 5 -21 12 -23 26 -9 -1 -38 -35 -38
-61 0 -152 92 -164 165 -3 19 -12 40 -19 46 -15 12 -18 46 -8 73 5 12 10 13
25 6 15 -9 29 -2 72 33 48 39 61 44 118 50 35 3 84 2 109 -3 25 -4 47 -6 49
-4 7 7 -29 76 -61 117 -59 74 -161 98 -240 57z"/>
<path d="M1325 1743 c-39 -8 -124 -45 -135 -58 -16 -19 0 -26 77 -35 36 -5 69
-14 73 -20 4 -7 11 -34 14 -60 4 -26 13 -53 21 -60 18 -15 20 -97 4 -133 -6
-13 -26 -29 -45 -36 -38 -14 -43 -27 -15 -36 28 -8 23 -44 -7 -52 -25 -6 -42
9 -42 37 0 12 -12 15 -55 15 -63 -1 -80 -10 -36 -20 17 -4 33 -11 37 -16 9
-15 -24 -59 -44 -59 -13 -1 -10 -6 12 -24 27 -23 29 -46 3 -46 -7 0 -31 -15
-53 -33 -23 -17 -63 -44 -88 -59 -77 -46 -105 -110 -135 -315 l-17 -122 70 -3
71 -3 -60 -13 c-33 -7 -72 -15 -88 -18 -33 -7 -52 -40 -62 -109 -4 -27 -14
-75 -22 -105 -8 -30 -17 -65 -20 -78 -3 -12 -16 -32 -29 -45 -28 -26 -30 -41
-6 -59 26 -20 25 -38 -2 -38 -27 0 -56 33 -56 63 0 35 -38 -1 -58 -55 -14 -38
-26 -54 -41 -56 -24 -4 -25 1 -11 28 11 20 4 50 -11 50 -5 0 -9 -6 -9 -14 0
-8 -16 -28 -36 -46 -27 -24 -42 -30 -63 -26 -18 4 -52 -7 -116 -38 l-90 -44
250 -1 c183 -1 254 2 263 11 9 9 12 9 12 0 0 -9 141 -12 622 -10 l622 3 2 55
c0 30 4 74 8 96 l7 42 -73 6 c-40 3 -120 8 -178 11 -142 8 -150 10 -150 40 0
27 -18 32 -51 15 -15 -8 -19 -7 -19 4 0 8 8 17 18 19 11 3 9 5 -8 6 -32 1 -72
-32 -64 -53 9 -23 -36 -25 -90 -4 -26 10 -27 13 -10 19 15 5 16 8 4 12 -8 3
-24 8 -35 13 -23 8 -33 10 -57 12 -10 1 -18 7 -18 13 0 6 16 8 44 4 26 -4 52
-3 63 4 15 9 13 11 -17 11 -19 1 -53 4 -75 7 -22 3 -57 6 -77 7 -22 0 -38 5
-38 12 0 14 99 25 155 17 31 -4 46 0 65 15 l24 19 -22 7 c-28 9 -18 36 13 36
13 0 26 4 29 9 9 13 69 -3 103 -29 17 -12 50 -26 74 -30 24 -5 58 -14 74 -21
17 -7 33 -12 38 -11 4 1 7 0 7 -3 0 -8 -73 -75 -82 -75 -4 0 -8 -11 -8 -24 0
-22 5 -23 77 -30 42 -3 106 -6 142 -6 l67 0 13 58 c19 80 25 176 12 167 -6 -3
-11 -17 -11 -31 0 -14 -6 -24 -14 -24 -8 0 -19 -14 -25 -31 -6 -17 -15 -28
-21 -24 -5 3 -13 -1 -16 -9 -9 -23 -51 -20 -59 3 -4 14 -12 18 -23 14 -14 -5
-15 -3 -5 7 18 19 94 25 104 8 6 -9 9 -6 9 10 0 23 4 22 -97 26 -52 2 -61 10
-69 63 -10 66 7 76 111 67 101 -9 125 -17 126 -46 1 -20 2 -21 6 -3 2 11 8 29
14 40 6 13 5 48 -4 105 l-13 85 -39 13 c-21 7 -51 11 -67 8 -26 -4 -28 -2 -22
17 6 20 6 46 1 152 -1 18 -7 29 -14 28 -15 -3 -18 14 -3 19 14 5 0 48 -16 48
-14 0 -13 21 2 68 2 7 -1 10 -6 7 -13 -8 -13 8 0 21 6 6 6 15 0 24 -7 10 -10
11 -10 3 0 -7 -8 -13 -18 -13 -11 0 -25 -14 -35 -35 -15 -32 -27 -40 -51 -36
-15 3 -35 -33 -36 -65 0 -26 6 -34 33 -48 24 -11 27 -16 12 -16 -45 0 -69 41
-54 94 5 20 14 36 18 36 5 0 11 18 15 39 3 21 13 41 21 45 27 10 16 22 -37 41
-29 10 -66 29 -81 42 -37 30 -57 30 -29 0 27 -29 28 -51 3 -86 -11 -15 -29
-51 -40 -80 -22 -58 -109 -198 -128 -205 -14 -6 -53 60 -83 141 -12 32 -28 69
-37 82 -19 30 -34 81 -27 93 4 5 16 1 28 -10 26 -23 56 -35 56 -22 0 6 9 10
19 10 21 0 61 48 61 73 0 9 5 19 10 22 17 10 11 55 -10 82 -31 40 -26 90 12
125 36 32 59 35 79 12 10 -12 10 -24 0 -64 -10 -41 -10 -53 2 -77 l15 -28 11
28 c6 16 11 32 11 38 0 5 13 49 30 99 39 119 34 165 -24 222 -73 71 -163 101
-251 81z m175 -999 c-17 -55 -33 -105 -35 -112 -3 -7 5 -17 18 -23 15 -6 -10
-8 -86 -5 -115 4 -161 19 -74 24 104 5 102 4 132 100 17 52 36 94 49 104 11 9
22 15 24 14 1 -2 -11 -48 -28 -102z m136 -64 c-30 -145 -67 -205 -123 -198
-38 4 -38 33 1 33 18 1 34 9 42 21 17 25 64 229 65 281 l1 38 15 -45 c15 -41
15 -51 -1 -130z m-424 113 c9 -10 24 -24 32 -31 33 -27 11 -75 -40 -88 -31 -8
-64 20 -64 53 0 22 36 81 50 82 3 1 13 -7 22 -16z m645 -65 c-3 -7 -5 -2 -5
12 0 14 2 19 5 13 2 -7 2 -19 0 -25z m133 -149 c0 -5 -11 -9 -25 -9 -26 0 -34
15 -12 23 16 5 37 -3 37 -14z m-1119 -94 c-8 -41 -17 -72 -19 -70 -5 5 17 125
25 138 10 16 9 4 -6 -68z m423 -24 c3 -5 -1 -12 -10 -15 -25 -10 -34 -7 -34 9
0 16 35 21 44 6z m93 -21 c2 -23 -5 -24 -41 -10 -36 13 -32 30 7 30 26 0 33
-4 34 -20z m-610 -386 c-2 -3 -12 -1 -22 2 -15 6 -16 8 -1 16 9 5 17 21 18 36
1 18 3 14 5 -12 3 -21 2 -40 0 -42z"/>
<path d="M1408 613 c6 -2 18 -2 25 0 6 3 1 5 -13 5 -14 0 -19 -2 -12 -5z"/>
<path d="M600 1605 c0 -8 -8 -15 -18 -15 -24 0 -32 -8 -25 -26 9 -24 50 -16
72 15 11 15 18 31 14 35 -12 12 -43 6 -43 -9z"/>
<path d="M1198 1513 c7 -3 16 -2 19 1 4 3 -2 6 -13 5 -11 0 -14 -3 -6 -6z"/>
<path d="M550 1450 c0 -5 5 -10 10 -10 6 0 10 5 10 10 0 6 -4 10 -10 10 -5 0
-10 -4 -10 -10z"/>
<path d="M193 1282 c6 -15 19 -40 29 -57 17 -28 18 -28 18 -7 0 30 -25 78 -44
85 -13 5 -13 2 -3 -21z"/>
<path d="M2230 1235 c-10 -12 -10 -21 -2 -40 6 -14 9 -32 6 -40 -6 -16 -44
-21 -44 -6 0 5 -7 12 -16 15 -12 5 -15 2 -10 -10 5 -14 4 -15 -8 -5 -11 9 -18
8 -32 -6 -17 -17 -17 -18 2 -21 26 -4 71 -39 61 -48 -4 -4 -29 3 -56 16 -57
26 -76 20 -67 -21 7 -36 -9 -39 -18 -4 -9 35 -30 20 -22 -15 3 -17 -1 -42 -10
-59 -14 -28 -14 -32 3 -49 10 -10 35 -28 56 -40 l37 -21 0 22 c0 12 -7 34 -14
50 -9 15 -10 27 -5 27 6 0 7 5 3 12 -5 8 -2 9 9 5 10 -4 28 4 47 20 l31 25 25
-27 c27 -29 28 -29 55 18 14 25 26 21 64 -20 29 -32 36 -35 50 -23 12 10 16
29 14 81 -1 37 -6 74 -10 81 -5 7 -9 9 -9 5 0 -5 -22 14 -49 42 -52 54 -70 61
-91 36z m90 -77 c0 -36 -12 -71 -19 -59 -9 15 -1 81 10 81 5 0 9 -10 9 -22z
m-70 -28 c0 -5 -5 -10 -11 -10 -5 0 -7 5 -4 10 3 6 8 10 11 10 2 0 4 -4 4 -10z"/>
<path d="M230 1158 c0 -41 14 -67 23 -44 8 20 -3 76 -14 76 -5 0 -9 -15 -9
-32z"/>
<path d="M1990 1091 c0 -11 5 -23 10 -26 6 -4 10 5 10 19 0 14 -4 26 -10 26
-5 0 -10 -9 -10 -19z"/>
<path d="M1870 1045 c-7 -8 -10 -18 -6 -22 3 -3 6 -2 6 4 0 6 7 14 16 17 14 5
15 4 4 -9 -10 -12 -10 -19 -2 -27 16 -16 35 3 30 28 -4 24 -31 29 -48 9z"/>
<path d="M2001 1034 c0 -11 3 -14 6 -6 3 7 2 16 -1 19 -3 4 -6 -2 -5 -13z"/>
<path d="M1943 870 c-3 -11 -9 -20 -14 -20 -17 0 -8 -25 21 -57 16 -18 38 -33
47 -33 15 0 16 2 3 10 -12 8 -9 10 13 10 26 0 38 15 17 22 -7 2 -7 14 1 37 14
39 3 51 -49 51 -26 0 -35 -5 -39 -20z"/>
<path d="M2730 805 c0 -8 5 -15 10 -15 6 0 10 7 10 15 0 8 -4 15 -10 15 -5 0
-10 -7 -10 -15z"/>
<path d="M1891 754 c0 -11 3 -14 6 -6 3 7 2 16 -1 19 -3 4 -6 -2 -5 -13z"/>
<path d="M20 205 c0 -8 -5 -15 -11 -15 -8 0 -8 -5 1 -15 7 -8 16 -12 21 -9 12
7 11 54 -1 54 -5 0 -10 -7 -10 -15z"/>
<path d="M27 25 c-25 -18 -21 -25 12 -25 36 0 46 12 22 27 -12 8 -22 7 -34 -2z"/>
<path d="M135 10 l-50 -7 55 -1 c30 -1 62 3 70 8 17 11 7 11 -75 0z"/>
</g>
</svg>
