<?xml version="1.0" standalone="no"?>
<!DOCTYPE svg PUBLIC "-//W3C//DTD SVG 20010904//EN"
 "http://www.w3.org/TR/2001/REC-SVG-20010904/DTD/svg10.dtd">
<svg version="1.0" xmlns="http://www.w3.org/2000/svg"
 width="300.000000pt" height="128.000000pt" viewBox="0 0 300.000000 128.000000"
 preserveAspectRatio="xMidYMid meet">
<metadata>
Created by potrace 1.16, written by Peter Selinger 2001-2019
</metadata>
<g transform="translate(0.000000,128.000000) scale(0.100000,-0.100000)"
fill="#000000" stroke="none">
<path d="M1080 1275 c0 -3 6 -14 13 -25 10 -17 9 -22 -2 -29 -8 -5 -10 -14 -6
-21 6 -10 2 -12 -13 -8 -18 5 -22 2 -22 -19 0 -20 4 -24 20 -20 16 4 20 0 20
-19 0 -15 -6 -24 -15 -24 -25 0 -28 -25 -8 -66 l17 -39 4 42 c2 23 10 47 18
53 7 7 14 9 14 6 0 -4 7 0 16 8 8 9 20 14 25 11 10 -7 12 2 10 60 -3 85 -9 95
-52 95 -21 0 -39 -2 -39 -5z"/>
<path d="M235 1141 c-47 -21 -71 -61 -55 -92 12 -21 5 -43 -11 -34 -5 4 -9 -3
-9 -14 0 -12 4 -21 8 -21 12 0 47 -79 39 -87 -7 -6 -32 19 -53 54 -18 29 -27
8 -14 -32 23 -69 100 -125 172 -125 108 0 206 127 178 231 -31 115 -147 169
-255 120z m138 -23 c23 -12 57 -67 57 -94 0 -38 -32 -115 -54 -129 -12 -8 -43
-13 -76 -12 -52 2 -55 3 -77 42 -37 65 -28 133 24 187 23 24 32 27 67 21 23
-3 49 -10 59 -15z"/>
<path d="M2025 1016 c-42 -18 -92 -78 -106 -127 -24 -78 27 -156 102 -158 63
-2 185 66 208 117 51 109 -84 220 -204 168z m12 -43 c-4 -3 2 -12 13 -20 11
-8 17 -20 14 -31 -5 -14 -4 -15 5 -2 6 8 11 11 11 5 0 -5 9 5 20 23 23 38 36
40 67 10 27 -25 30 -73 7 -106 -13 -18 -19 -21 -30 -11 -8 6 -14 8 -15 3 -1
-5 -2 -17 -3 -27 0 -10 -13 -25 -27 -34 -25 -15 -29 -15 -69 8 -56 31 -60 45
-16 63 20 8 36 20 36 26 0 6 -11 5 -30 -5 -36 -19 -70 -19 -70 -2 0 16 39 96
40 82 0 -5 5 -2 11 8 5 9 17 17 26 17 9 0 13 -3 10 -7z"/>
<path d="M984 813 c-12 -28 -17 -51 -12 -54 5 -3 8 -30 6 -59 l-4 -52 -53 -18
c-47 -16 -100 -59 -101 -82 0 -11 14 -10 26 2 11 11 156 72 161 67 2 -2 -26
-16 -61 -31 -63 -27 -214 -120 -228 -140 -4 -6 -8 -7 -8 -2 0 5 8 18 18 29 16
20 16 20 -3 12 -11 -4 -32 -9 -48 -10 -38 -4 -77 -32 -77 -55 0 -10 -8 -27
-18 -37 -22 -21 -67 -156 -76 -226 -3 -26 -11 -57 -17 -68 -10 -20 -11 -20
-30 -3 -14 13 -16 20 -8 31 6 7 18 43 26 80 7 37 24 91 37 120 14 28 22 54 18
57 -3 4 1 12 10 19 21 16 30 58 16 74 -9 11 -14 11 -29 -3 -25 -23 -24 -34 4
-35 20 -1 -5 -10 -62 -23 -30 -6 -91 -70 -91 -94 0 -17 -4 -23 -15 -18 -8 3
-21 -1 -29 -9 -7 -8 -16 -12 -19 -9 -9 9 4 34 18 34 7 0 15 9 18 21 5 19 4 20
-12 5 -10 -9 -27 -16 -38 -16 -31 0 -67 -79 -59 -125 4 -22 3 -35 -4 -35 -13
0 -14 187 0 195 6 3 10 1 10 -6 0 -7 12 -1 27 13 16 15 42 30 58 33 68 15 69
20 10 25 l-60 5 2 48 c2 26 -2 47 -7 47 -19 0 -50 -40 -50 -64 0 -29 -28 -36
-146 -36 -83 0 -84 0 -84 -25 l0 -25 110 0 110 0 0 -42 c0 -49 -18 -154 -32
-183 -5 -11 -15 -31 -22 -45 -17 -32 -28 -100 -15 -100 5 0 9 6 9 14 0 7 9 16
20 19 16 4 20 14 20 50 0 25 5 49 10 52 7 4 9 -2 4 -18 -9 -38 3 -62 44 -91
l38 -26 306 0 306 0 7 43 c4 23 13 55 21 71 14 28 13 32 -18 70 -52 68 -53 74
-3 18 32 -36 69 -63 113 -84 70 -33 132 -82 132 -104 0 -12 38 -14 215 -14
l214 0 17 32 c9 18 21 36 27 40 6 3 11 15 12 25 1 10 4 23 6 28 5 16 -31 115
-62 171 -16 28 -29 60 -29 70 0 11 -5 36 -11 57 l-10 38 -20 -25 c-18 -23 -58
-30 -76 -13 -3 4 -18 7 -33 7 -33 0 -51 14 -83 65 -13 22 -32 46 -41 54 -9 7
-16 19 -16 25 0 6 -14 17 -31 23 -27 11 -30 15 -19 28 11 13 16 12 42 -7 25
-17 34 -19 49 -10 10 7 25 12 33 12 22 0 26 14 17 48 -6 20 -5 44 2 68 10 33
9 38 -12 55 -31 25 -85 25 -112 -2 -12 -12 -18 -27 -14 -37 3 -8 3 -35 -1 -59
-5 -33 -10 -43 -25 -43 -11 0 -22 7 -25 15 -4 8 -10 12 -15 9 -5 -3 -9 3 -9
13 0 10 -9 24 -20 31 -17 10 -23 9 -41 -9 l-21 -21 7 21 c7 22 -4 28 -21 11
-18 -18 -34 14 -42 79 l-7 61 -21 -47z"/>
<path d="M0 680 c0 -24 65 -55 150 -73 48 -10 89 -11 155 -5 97 10 195 34 195
49 0 15 -77 10 -131 -7 -78 -26 -205 -16 -296 23 -66 28 -73 29 -73 13z"/>
<path d="M2512 113 c-2 -64 -22 -91 -22 -30 0 17 -3 43 -7 55 -10 40 -23 4
-23 -66 l0 -63 -132 3 c-110 3 -133 6 -134 18 -3 44 -5 51 -14 45 -5 -3 -10
-15 -10 -25 0 -10 -10 -26 -22 -34 -21 -15 7 -16 319 -16 244 0 344 3 349 11
5 9 -23 10 -104 7 -90 -4 -112 -2 -117 10 -3 8 -11 12 -18 9 -6 -2 -21 -1 -32
3 -16 6 -21 19 -26 71 l-6 64 -1 -62z"/>
</g>
</svg>
