<?xml version="1.0" standalone="no"?>
<!DOCTYPE svg PUBLIC "-//W3C//DTD SVG 20010904//EN"
 "http://www.w3.org/TR/2001/REC-SVG-20010904/DTD/svg10.dtd">
<svg version="1.0" xmlns="http://www.w3.org/2000/svg"
 width="300.000000pt" height="197.000000pt" viewBox="0 0 300.000000 197.000000"
 preserveAspectRatio="xMidYMid meet">
<metadata>
Created by potrace 1.16, written by Peter Selinger 2001-2019
</metadata>
<g transform="translate(0.000000,197.000000) scale(0.100000,-0.100000)"
fill="#000000" stroke="none">
<path d="M724 1360 c-130 -27 -248 -138 -304 -285 -8 -21 -6 -23 23 -21 26 1
35 -5 55 -36 18 -26 34 -38 59 -43 20 -3 40 -2 45 3 13 13 36 110 43 182 12
114 39 135 165 134 85 0 137 -21 144 -57 3 -12 13 -67 22 -122 10 -55 18 -102
19 -105 2 -14 34 -64 35 -55 0 6 15 12 33 13 18 1 36 10 42 19 6 10 22 29 36
44 l26 28 -23 5 c-12 3 -25 14 -29 24 -3 11 -23 43 -45 72 -22 30 -40 59 -40
65 0 18 -34 45 -58 45 -11 0 -38 10 -59 23 -54 31 -162 31 -215 -2 -20 -12
-47 -21 -60 -19 -19 4 -15 8 27 28 42 21 66 24 150 25 104 0 133 -8 225 -65
l35 -22 -40 37 c-79 74 -204 108 -311 85z"/>
<path d="M2200 1228 l-29 -63 5 58 c7 63 -7 78 -23 25 l-10 -33 -7 33 c-10 40
-33 42 -40 2 -3 -16 -9 -44 -12 -61 -5 -24 -3 -30 7 -27 8 3 15 14 17 26 4 27
22 19 22 -9 0 -16 7 -19 40 -19 22 0 40 5 40 10 0 6 7 10 15 10 8 0 15 -4 15
-10 0 -5 17 -10 39 -10 31 0 40 4 45 23 l7 22 9 -22 c5 -13 16 -23 25 -23 13
0 15 7 9 35 -4 21 -2 35 4 35 13 0 23 27 16 45 -8 20 -80 21 -87 1 -3 -7 -9
-35 -12 -61 -9 -58 -25 -41 -25 28 0 40 -3 47 -20 47 -15 0 -28 -17 -50 -62z"/>
<path d="M2372 1070 c-12 -5 -25 -17 -28 -25 -6 -14 -9 -13 -26 5 -15 16 -29
20 -56 18 -34 -3 -37 -6 -44 -43 -4 -22 -10 -50 -13 -62 -5 -19 -1 -23 20 -23
16 0 25 6 25 15 0 8 15 21 33 28 30 13 32 13 40 -10 17 -45 95 -43 122 5 l16
27 -5 -32 c-5 -30 -3 -33 19 -33 16 0 25 6 25 15 0 8 5 15 10 15 6 0 10 -7 10
-15 0 -10 10 -15 26 -15 24 0 26 3 21 29 -4 19 -1 33 8 41 40 33 2 73 -63 68
-32 -3 -37 -7 -40 -30 -4 -32 -22 -38 -22 -8 0 13 -10 24 -26 30 -14 6 -26 10
-27 9 -1 0 -12 -4 -25 -9z"/>
<path d="M2115 1062 c-11 -2 -25 -10 -31 -18 -10 -12 -13 -12 -24 1 -19 23
-56 18 -78 -10 -19 -24 -20 -24 -25 -5 -4 15 -14 20 -40 20 -37 0 -47 -12 -47
-58 0 -21 -2 -24 -10 -12 -5 8 -10 27 -10 43 0 21 -5 27 -22 27 -17 0 -29 -12
-45 -48 -22 -45 -23 -42 -9 21 8 34 -19 39 -30 5 l-7 -23 -8 24 c-11 28 -31
23 -40 -10 -4 -15 -7 -18 -8 -7 -1 24 -31 37 -58 27 -37 -14 -44 -81 -11 -103
14 -8 23 -5 44 14 20 19 26 21 21 8 -5 -13 -1 -18 13 -18 12 0 20 7 21 18 0
13 3 11 10 -6 5 -14 14 -20 20 -16 6 3 51 6 100 5 79 -1 90 1 103 20 l14 21 7
-21 c5 -16 15 -21 39 -21 17 0 37 5 44 12 9 9 12 9 12 0 0 -7 15 -12 40 -12
52 0 69 26 39 64 l-20 26 20 0 c12 0 21 6 21 14 0 17 -18 24 -45 18z"/>
<path d="M1422 1024 c-6 -11 -11 -13 -16 -5 -4 6 -20 11 -37 11 -24 0 -29 -4
-29 -25 0 -14 -4 -25 -10 -25 -5 0 -9 3 -9 8 9 57 -25 54 -51 -4 -24 -56 -24
-54 -5 -54 8 0 15 5 15 12 0 9 3 9 12 0 19 -19 56 -14 63 7 3 10 14 21 25 24
17 4 19 1 14 -19 -6 -24 9 -34 21 -14 4 7 11 7 18 2 16 -12 89 -12 105 1 7 6
12 6 12 0 0 -5 7 -10 16 -10 12 0 14 7 10 29 -4 18 0 38 10 53 l16 24 -58 -2
c-57 -2 -58 -3 -68 -37 l-10 -35 -4 38 c-3 39 -24 50 -40 21z"/>
<path d="M384 955 c-11 -28 -12 -44 -4 -75 10 -38 50 -80 76 -80 7 0 34 -23
61 -51 108 -115 243 -153 382 -110 34 10 64 15 67 10 8 -14 68 -11 88 4 14 10
17 22 13 48 -6 44 32 99 69 99 37 0 78 25 92 55 16 36 15 87 -3 111 -15 19
-15 19 -31 -1 -10 -14 -13 -29 -8 -50 15 -68 12 -80 -25 -83 -26 -3 -39 3 -63
27 -17 17 -34 31 -38 31 -5 0 -12 11 -17 25 -6 18 -8 2 -8 -52 0 -94 -20 -129
-93 -165 -39 -19 -62 -23 -137 -23 -100 1 -154 21 -194 71 -25 32 -44 98 -38
131 6 30 -5 29 -45 -6 -43 -37 -78 -55 -78 -41 0 6 -4 9 -9 5 -5 -3 -13 4 -16
16 -6 17 -9 19 -16 8 -6 -9 -9 -10 -9 -2 0 7 6 16 13 20 22 14 35 56 24 80
-16 37 -37 36 -53 -2z"/>
<path d="M1380 880 c-25 -25 -26 -62 -2 -83 25 -23 39 -21 48 5 6 19 7 20 16
4 8 -14 21 -17 61 -15 29 2 58 0 66 -5 20 -13 27 6 23 58 -3 37 -8 46 -23 46
-10 0 -25 -12 -34 -27 l-16 -28 6 28 c4 20 2 27 -10 27 -9 0 -18 -12 -22 -30
-8 -43 -23 -48 -16 -5 4 28 2 35 -11 35 -9 0 -16 -8 -16 -17 0 -14 -3 -13 -16
5 -19 27 -28 28 -54 2z"/>
<path d="M715 883 c-36 -9 -39 -21 -15 -57 28 -40 68 -66 103 -66 30 0 82 41
102 80 14 27 14 28 -17 39 -31 11 -134 13 -173 4z"/>
<path d="M1600 881 c0 -6 4 -12 9 -15 5 -3 7 -24 4 -46 -5 -32 -3 -40 11 -40
11 0 18 12 22 40 4 22 12 40 19 40 9 0 12 -11 8 -40 -5 -32 -2 -40 10 -40 8 0
18 6 20 13 4 10 6 10 6 0 1 -7 10 -13 21 -13 16 0 19 5 14 24 -3 13 -1 27 5
30 7 4 11 -1 11 -13 0 -11 7 -26 15 -34 32 -33 89 15 83 70 -2 22 -9 29 -31
31 -16 2 -35 -2 -43 -9 -11 -9 -18 -9 -26 -1 -14 14 -158 16 -158 3z"/>
<path d="M1916 882 c-3 -5 -8 -32 -12 -60 -6 -45 -4 -52 11 -52 9 0 19 9 22
20 3 11 11 20 18 20 8 0 21 3 30 7 15 5 16 3 6 -15 -6 -11 -11 -23 -11 -26 0
-10 36 -6 47 5 8 8 13 8 17 0 4 -6 16 -11 27 -11 16 0 19 7 19 44 0 24 -3 51
-6 60 -6 16 -54 23 -54 8 0 -5 -6 -15 -12 -23 -7 -8 -12 -12 -11 -10 1 2 -2
12 -8 22 -10 19 -73 27 -83 11z"/>
<path d="M2197 835 c-15 -31 -27 -60 -27 -65 0 -14 34 -12 48 2 10 10 14 10
21 0 10 -16 116 -18 136 -2 19 16 19 44 0 60 -21 17 -19 30 5 30 11 0 20 7 20
16 0 12 -9 14 -42 12 -38 -3 -43 -6 -46 -29 -2 -14 4 -31 12 -39 24 -19 19
-29 -14 -28 -29 1 -30 3 -30 50 0 46 -1 48 -28 48 -24 0 -32 -8 -55 -55z"/>
</g>
</svg>
