<svg width="64" height="64" viewBox="0 0 64 64" fill="none" xmlns="http://www.w3.org/2000/svg">
<path d="M21.5801 7C13.5411 7 7 13.5449 7 21.5859V42.418C7 50.458 13.5449 57 21.5859 57H42.418C50.458 57 57 50.4551 57 42.4141V21.5801C57 13.5411 50.4551 7 42.4141 7H21.5801ZM47 15C48.104 15 49 15.896 49 17C49 18.104 48.104 19 47 19C45.896 19 45 18.104 45 17C45 15.896 45.896 15 47 15ZM32 19C39.17 19 45 24.83 45 32C45 39.17 39.169 45 32 45C24.83 45 19 39.169 19 32C19 24.831 24.83 19 32 19ZM32 23C27.029 23 23 27.029 23 32C23 36.971 27.029 41 32 41C36.971 41 41 36.971 41 32C41 27.029 36.971 23 32 23Z" fill="black"/>
</svg>
