<?xml version="1.0" standalone="no"?>
<!DOCTYPE svg PUBLIC "-//W3C//DTD SVG 20010904//EN"
 "http://www.w3.org/TR/2001/REC-SVG-20010904/DTD/svg10.dtd">
<svg version="1.0" xmlns="http://www.w3.org/2000/svg"
 width="678.000000pt" height="1024.000000pt" viewBox="0 0 678.000000 1024.000000"
 preserveAspectRatio="xMidYMid meet">

<g transform="translate(0.000000,1024.000000) scale(0.100000,-0.100000)"
fill="#000000" stroke="none">
<path d="M3325 9383 c-22 -3 -47 -10 -55 -18 -8 -7 -35 -16 -60 -20 -25 -4
-56 -16 -69 -26 -13 -11 -32 -19 -42 -19 -56 0 -158 -74 -289 -210 -76 -78
-102 -118 -140 -215 -60 -151 -74 -286 -47 -445 18 -110 31 -290 21 -290 -4 0
-16 7 -26 17 -26 23 -22 3 11 -61 31 -57 48 -147 37 -191 -4 -15 -18 -30 -39
-38 -61 -26 -142 -115 -123 -135 3 -3 6 0 6 6 0 24 72 92 108 101 19 6 39 8
44 5 4 -3 8 -32 8 -64 0 -110 49 -316 100 -419 27 -54 19 -65 -63 -86 -77 -20
-76 -20 -93 20 -8 19 -16 35 -19 35 -7 0 30 -91 65 -161 17 -34 28 -59 23 -56
-4 3 -26 42 -48 86 -29 61 -41 77 -46 64 -5 -14 -34 -23 -129 -41 -105 -20
-138 -31 -219 -74 -156 -82 -179 -93 -326 -144 -189 -65 -301 -147 -320 -234
-3 -15 -31 -72 -61 -126 -30 -55 -68 -133 -85 -174 -44 -103 -107 -311 -120
-390 -6 -36 -17 -98 -25 -138 -8 -40 -14 -106 -14 -147 0 -40 -4 -85 -10 -99
-5 -15 -19 -89 -30 -167 -13 -86 -32 -171 -51 -222 -16 -45 -34 -102 -40 -126
-5 -24 -23 -61 -40 -83 l-31 -38 29 -28 c15 -16 38 -34 51 -41 12 -6 22 -17
22 -24 0 -7 11 -14 23 -15 83 -6 467 -160 539 -215 19 -15 20 -54 1 -54 -6 0
-10 4 -7 9 3 4 -2 5 -10 2 -8 -3 -13 -14 -11 -27 4 -20 3 -20 -9 -5 -10 14
-15 15 -26 5 -10 -9 -11 -9 -6 1 4 6 2 12 -3 12 -12 0 -13 -4 -15 -47 0 -16
-9 -36 -19 -46 -25 -25 -19 -72 9 -71 22 0 25 -10 11 -33 -4 -7 -1 -13 8 -15
10 -2 12 -7 5 -18 -8 -13 -13 -12 -32 7 -12 13 -17 23 -10 23 6 0 12 5 12 10
0 7 -6 7 -17 2 -10 -5 -32 -7 -49 -5 -25 4 -35 0 -51 -21 -17 -20 -30 -26 -62
-26 -32 0 -41 -4 -41 -17 0 -9 3 -13 7 -10 11 12 52 -67 53 -101 0 -33 0 -34
38 -27 38 6 38 5 48 -32 7 -26 15 -37 24 -34 8 2 21 4 29 4 7 0 0 12 -18 26
-22 19 -28 30 -21 41 8 12 11 12 27 -2 10 -9 27 -18 38 -20 15 -2 21 -12 23
-40 2 -29 7 -36 19 -31 11 4 14 2 9 -5 -4 -7 -16 -12 -27 -12 -14 0 -19 -7
-19 -26 0 -19 7 -28 30 -37 16 -6 30 -15 30 -20 0 -4 6 -5 13 -2 6 4 3 -1 -7
-9 -11 -9 -26 -16 -33 -16 -7 0 -13 -11 -13 -26 0 -22 2 -25 15 -14 8 7 15 9
15 6 0 -4 10 2 22 14 30 28 42 26 37 -7 0 -3 7 -11 17 -16 17 -10 17 -11 -1
-18 -19 -7 -19 -8 2 -8 18 -1 21 -5 16 -33 -4 -28 -3 -30 11 -19 9 8 16 10 16
6 0 -4 -7 -13 -16 -20 -14 -10 -14 -15 -4 -34 8 -17 9 -26 1 -34 -8 -8 -11 -7
-11 5 0 9 -17 32 -37 52 l-38 37 -12 -28 c-8 -18 -12 -22 -13 -10 0 20 -11 22
-27 6 -8 -8 -13 1 -18 37 -11 87 -16 104 -31 104 -8 0 -14 5 -14 10 0 6 -4 10
-10 10 -6 0 -6 -9 0 -25 9 -24 -3 -45 -15 -26 -3 6 -15 7 -29 1 -15 -5 -27 -5
-34 2 -8 8 -19 8 -38 -1 -22 -10 -29 -9 -35 1 -11 17 -11 26 1 33 15 10 12 55
-5 61 -21 8 -19 51 2 63 10 5 14 13 10 17 -4 5 -21 -6 -38 -24 -16 -18 -34
-32 -40 -32 -5 0 -7 -11 -4 -23 6 -22 4 -23 -24 -19 -18 2 -31 10 -31 18 0 18
-31 54 -41 48 -4 -2 -10 5 -14 16 -4 12 -11 17 -18 14 -7 -4 -2 4 11 18 15 17
31 24 45 22 16 -3 15 -1 -5 6 -14 6 -29 18 -32 27 -5 13 -4 14 9 3 13 -11 14
-10 10 2 -4 9 -19 18 -34 21 -19 4 -32 16 -40 35 -16 39 -11 56 19 62 16 3 26
13 28 27 3 17 8 20 31 17 27 -5 48 9 50 31 1 10 5 12 46 14 44 2 27 18 -27 24
-55 7 -80 -4 -76 -32 2 -11 -5 -17 -22 -18 l-25 -2 25 9 c21 7 19 8 -15 7 -35
-2 -40 1 -43 22 -4 28 15 70 41 89 11 9 14 19 9 30 -7 15 -8 70 -2 97 1 6 2
21 1 35 -1 18 -4 21 -10 11 -5 -7 -13 -11 -19 -7 -6 4 -12 -5 -15 -21 -4 -25
-4 -24 -6 7 -1 30 -3 32 -12 17 -6 -10 -8 -25 -5 -34 5 -13 4 -14 -8 -4 -12
10 -15 3 -21 -46 -4 -32 -16 -116 -27 -188 -32 -203 -38 -259 -33 -273 3 -8
10 -66 15 -129 6 -71 18 -132 29 -157 10 -23 65 -89 127 -152 84 -85 137 -129
231 -190 202 -130 240 -154 251 -154 27 0 30 -27 12 -125 -10 -55 -34 -185
-54 -290 -45 -245 -44 -241 -26 -237 20 4 244 114 320 157 33 19 60 31 60 27
0 -4 -26 -22 -57 -40 -32 -18 -71 -42 -88 -52 -46 -29 -68 -42 -157 -88 -46
-24 -88 -49 -95 -55 -10 -11 -99 -447 -91 -451 34 -15 44 -28 48 -62 3 -21 9
-44 13 -50 3 -6 11 -96 17 -200 13 -231 25 -372 33 -380 3 -4 30 2 59 12 82
29 164 116 221 235 25 52 50 115 57 140 6 24 40 94 74 154 72 126 105 203 141
336 55 195 111 311 182 375 l45 40 19 148 c11 82 24 157 30 167 13 25 41 24
65 -2 17 -19 27 -21 95 -16 53 3 85 1 110 -10 53 -22 144 -24 198 -4 55 20 88
17 96 -10 11 -35 95 -63 95 -32 0 11 5 13 18 7 28 -12 268 -17 289 -6 12 7 18
23 19 49 1 21 7 60 13 87 13 56 12 58 -42 97 -22 16 -42 36 -43 43 -3 23 -36
86 -44 86 -12 0 -50 -56 -50 -73 0 -17 -52 -52 -92 -62 -25 -6 -28 -12 -30
-49 -1 -22 0 -59 1 -81 2 -33 -3 -45 -24 -63 -25 -22 -28 -22 -51 -7 -14 9
-28 23 -31 31 -3 7 -9 11 -14 8 -5 -3 -9 2 -9 11 0 11 -5 15 -15 11 -18 -7
-20 5 -3 22 17 17 -4 15 -30 -4 -31 -21 -28 -8 5 20 29 26 27 60 -4 50 -17 -5
-17 -5 0 6 14 9 16 15 6 26 -6 8 -21 14 -32 14 -20 0 -20 0 -1 15 10 8 14 15
8 15 -6 0 -9 10 -7 24 3 13 -1 27 -8 31 -8 5 -10 4 -5 -3 12 -20 -24 -14 -57
10 -20 14 -48 23 -86 25 -31 1 -63 4 -71 6 -24 5 -154 80 -187 108 -28 24
-138 78 -154 76 -21 -4 -40 -17 -35 -26 7 -11 -27 -10 -41 2 -7 5 -13 6 -13 1
0 -5 -5 -2 -10 6 -9 13 -10 13 -11 0 0 -8 -5 -4 -10 10 -7 20 -8 16 -5 -18 4
-38 3 -41 -9 -25 -13 17 -14 16 -24 -9 -12 -31 -27 -43 -37 -27 -4 7 -3 9 4 5
6 -3 13 -2 16 3 7 11 -37 9 -46 -3 -4 -6 -10 2 -13 17 -4 15 -11 27 -15 27 -4
0 -23 15 -42 32 -38 37 -63 84 -48 93 6 4 10 10 10 15 0 5 -22 -4 -49 -19 -27
-16 -52 -27 -55 -24 -3 3 -12 0 -20 -6 -12 -10 -22 -8 -50 14 -37 28 -49 59
-41 102 3 17 2 22 -2 11 -7 -14 -10 -15 -27 -2 -11 8 -15 14 -10 14 6 0 19 8
30 18 10 10 31 18 47 19 15 1 28 2 30 3 1 1 30 4 65 5 34 2 68 5 75 8 15 6
129 173 179 262 29 52 41 64 96 92 80 40 147 91 243 184 63 61 78 82 88 121
14 58 36 73 76 52 27 -14 31 -13 58 6 27 21 29 21 42 4 11 -16 18 -17 53 -8
33 9 45 8 66 -5 14 -9 26 -18 26 -21 0 -3 4 -11 9 -18 6 -11 27 -8 107 13 82
22 114 26 184 22 47 -2 95 -8 108 -12 l22 -7 -5 118 c-25 531 -31 589 -94 959
-12 66 -30 212 -41 325 -20 206 -30 278 -50 350 -10 36 -17 43 -83 73 -70 33
-82 42 -159 113 -35 32 -188 255 -188 273 0 8 43 41 54 41 2 0 7 -11 10 -25 4
-14 11 -25 16 -25 6 0 10 -6 10 -14 0 -8 4 -16 8 -18 4 -1 34 -40 65 -85 64
-90 116 -138 192 -176 55 -27 179 -51 223 -42 75 16 141 39 177 63 35 24 219
226 245 270 9 16 11 16 20 0 6 -10 18 -18 25 -18 28 0 21 -10 -113 -179 -80
-99 -160 -162 -236 -182 -23 -6 -52 -15 -66 -18 -32 -10 -47 -42 -67 -144 -25
-133 -9 -349 56 -767 20 -127 36 -288 45 -460 3 -52 11 -175 18 -273 l11 -179
55 -24 c30 -13 75 -39 101 -58 55 -40 124 -76 146 -76 47 0 174 -99 205 -160
10 -19 28 -69 40 -110 14 -47 40 -99 68 -139 25 -36 56 -86 68 -111 27 -57 57
-167 49 -180 -14 -23 -49 -6 -102 50 -33 35 -68 62 -85 65 l-29 7 27 20 c34
27 44 56 31 93 -11 32 -48 87 -81 121 -12 11 -36 37 -54 58 -36 41 -85 66
-132 66 -29 0 -30 -1 -30 -47 0 -33 8 -61 25 -88 65 -108 66 -117 12 -108
l-34 5 -27 -80 -27 -81 82 -162 81 -161 33 5 c44 7 53 -4 15 -19 -54 -23 -28
-40 68 -47 48 -4 110 -13 139 -22 45 -13 56 -14 85 -1 42 18 192 66 206 66 5
0 8 -8 5 -19 -3 -10 1 -22 7 -26 9 -5 10 -1 6 13 -5 14 0 27 15 41 29 27 46
27 54 0 6 -17 9 -19 16 -8 7 10 9 5 7 -16 -3 -31 -37 -60 -49 -42 -11 16 -48
-3 -46 -23 1 -11 7 -20 13 -20 22 0 22 -38 0 -83 -15 -32 -27 -45 -41 -44 -30
3 -48 -43 -38 -100 5 -27 7 -70 5 -96 -4 -42 -9 -51 -38 -70 -23 -15 -34 -30
-34 -47 0 -35 -17 -59 -29 -41 -7 11 -13 10 -35 -4 -14 -10 -48 -18 -75 -19
-50 -1 -91 -25 -91 -52 0 -7 -8 -12 -17 -12 -17 0 -159 -46 -195 -63 -10 -5
-32 -9 -49 -9 -24 0 -42 -11 -78 -46 -25 -26 -48 -47 -51 -48 -3 0 -4 -4 -3
-7 1 -3 -8 -5 -20 -4 -12 1 -27 12 -34 26 -11 22 -8 28 45 81 31 32 62 58 69
58 7 0 13 4 13 8 0 31 96 93 195 126 13 5 16 9 7 15 -17 10 31 77 71 97 31 16
31 17 9 25 -25 9 -26 16 -12 53 6 16 6 27 -1 31 -5 4 1 19 16 37 26 31 34 55
13 42 -7 -5 -8 -3 -4 5 5 7 19 16 32 21 29 11 30 21 4 37 -23 15 -64 3 -89
-26 -9 -10 -21 -16 -27 -14 -5 2 -41 -26 -78 -62 l-68 -66 -20 37 c-11 20 -17
45 -15 55 3 10 -2 27 -10 39 -8 11 -12 27 -10 35 3 7 44 32 91 55 47 23 86 48
86 56 0 24 -43 26 -90 4 -148 -71 -145 -66 -146 -180 0 -52 -3 -115 -6 -140
-8 -68 -83 -277 -122 -340 -59 -96 -68 -121 -71 -189 -3 -59 -32 -156 -54
-186 -5 -5 -11 -19 -14 -30 -3 -11 -10 -34 -15 -52 -10 -31 -10 -32 15 -22 29
11 33 11 33 1 0 -4 -14 -13 -30 -21 -20 -8 -39 -29 -54 -60 -24 -50 -105 -194
-143 -253 -13 -21 -37 -72 -54 -115 -16 -42 -42 -96 -56 -120 -14 -24 -35 -72
-48 -108 l-22 -65 31 -4 c17 -3 114 -10 216 -16 377 -21 370 -20 371 -38 1
-10 5 9 9 41 9 67 26 89 93 123 39 20 46 28 38 42 -14 25 -50 62 -61 62 -15 0
-12 26 5 40 9 7 13 15 10 18 -3 3 3 14 12 25 10 11 13 17 6 14 -6 -4 -15 -2
-18 4 -10 15 14 56 35 62 13 3 18 19 23 63 3 42 15 76 39 116 27 48 42 62 88
84 52 25 132 96 193 172 l27 35 0 -44 c-1 -44 -5 -64 -54 -252 -14 -54 -26
-103 -26 -109 0 -7 19 -8 62 -4 66 8 91 17 123 47 26 24 104 44 138 35 29 -7
57 -51 57 -90 0 -40 -44 -81 -133 -124 -109 -53 -107 -52 -201 -53 -44 0 -91
-3 -103 -6 -36 -8 -64 -68 -68 -142 -3 -56 -1 -69 17 -88 11 -12 29 -46 39
-75 10 -29 18 -44 19 -32 0 21 5 21 239 28 131 4 274 5 317 1 76 -6 81 -5 144
28 79 42 105 78 114 154 9 75 32 194 51 263 13 44 16 120 16 375 1 387 7 687
17 775 l7 65 99 50 c54 28 112 63 130 78 17 16 72 54 121 86 50 32 140 102
200 156 61 53 140 124 176 156 53 46 75 75 108 142 23 46 46 109 51 140 5 31
12 180 16 332 l7 275 126 74 c69 40 144 83 166 94 22 11 55 36 74 56 l34 35
-24 38 c-14 21 -44 97 -68 168 -44 131 -111 310 -183 485 -22 52 -80 196 -129
320 -50 124 -159 367 -241 540 -144 300 -154 318 -217 383 -36 38 -88 86 -116
106 -70 53 -463 248 -625 312 -74 29 -171 73 -215 97 -44 25 -97 53 -117 64
-21 10 -38 22 -38 26 0 5 -18 19 -40 31 -33 18 -40 27 -34 43 4 14 3 18 -5 13
-8 -4 -6 7 4 31 25 60 11 49 -20 -15 -22 -47 -33 -60 -56 -65 -35 -7 -119 27
-119 47 0 8 11 44 25 80 53 143 65 187 65 252 l0 65 31 0 c38 0 84 -31 104
-70 8 -16 15 -57 16 -92 1 -61 1 -62 10 -24 15 62 -10 132 -67 189 -25 26 -52
47 -60 47 -23 0 -27 25 -10 59 19 36 20 74 4 100 -9 15 -9 26 1 47 10 22 10
29 -1 35 -10 6 -9 15 5 43 9 20 14 42 11 50 -3 9 5 46 18 83 22 65 23 79 21
315 l-2 246 -30 61 c-17 33 -31 68 -31 76 0 9 -12 33 -27 53 -41 56 -186 198
-219 215 -16 8 -38 24 -48 36 -11 12 -30 21 -44 21 -14 0 -56 16 -95 36 -62
31 -87 37 -226 55 -86 10 -156 18 -156 17 0 -1 -18 -3 -40 -5z m-320 -543 c3
-6 -4 -10 -17 -10 -18 0 -20 2 -8 10 19 12 18 12 25 0z m28 -50 c16 -17 35
-30 44 -30 8 0 29 -11 47 -25 42 -32 74 -31 168 4 42 15 81 25 88 21 6 -4 37
-8 70 -9 47 -2 72 4 126 29 37 16 73 30 80 30 7 0 33 -11 58 -25 25 -14 60
-25 79 -25 19 0 40 -7 47 -15 21 -25 63 -104 80 -150 4 -11 13 -33 20 -50 25
-60 70 -206 70 -227 0 -12 9 -31 19 -42 35 -38 53 -115 61 -255 6 -110 11
-137 25 -147 13 -10 16 -22 11 -51 -6 -41 -24 -95 -44 -130 -7 -12 -12 -29
-12 -39 0 -13 -3 -14 -13 -5 -19 16 -27 4 -27 -42 0 -38 -1 -39 -18 -24 -24
22 -32 21 -32 0 -1 -17 -1 -17 -14 0 -20 26 -28 21 -22 -14 4 -25 2 -28 -10
-18 -7 6 -12 15 -9 19 3 4 -2 10 -10 14 -8 3 -17 1 -20 -5 -4 -5 -11 -7 -16
-3 -5 3 -8 0 -7 -6 4 -15 -22 -21 -90 -20 -53 0 -102 21 -102 44 0 11 -19 25
-65 50 -11 6 -32 20 -47 30 -41 27 -52 17 -49 -40 3 -60 -6 -69 -71 -76 -25
-3 -58 -14 -72 -25 -35 -28 -136 -21 -170 11 -12 11 -37 29 -54 38 -38 21 -43
60 -13 110 11 17 18 35 15 40 -5 8 -70 -25 -84 -42 -3 -3 -21 -17 -40 -30 -19
-13 -47 -36 -62 -51 -14 -15 -29 -25 -32 -22 -3 4 -9 -8 -12 -25 -4 -18 -11
-32 -16 -32 -5 0 -6 5 -2 12 5 8 0 9 -14 6 -12 -4 -25 -1 -29 4 -3 6 -1 8 5 4
6 -3 13 -2 17 3 10 17 -39 2 -52 -16 -7 -9 -13 -13 -13 -8 0 5 7 16 15 25 13
15 13 17 0 17 -8 0 -15 -4 -15 -9 0 -5 -5 -6 -12 -2 -7 5 -8 3 -3 -6 6 -10 4
-12 -8 -7 -9 3 -16 3 -16 -1 4 -24 -3 -42 -16 -42 -11 0 -12 5 -5 25 8 20 6
25 -6 25 -9 0 -12 -5 -8 -12 5 -9 4 -10 -4 -3 -7 6 -15 53 -18 105 -4 52 -10
97 -14 100 -4 3 -13 34 -21 70 -12 55 -13 91 -2 235 15 201 50 353 128 550 55
141 88 199 116 205 56 14 74 10 102 -20z m1115 -1483 c12 -11 22 -24 22 -29 0
-7 -114 -203 -126 -217 -8 -9 -12 6 -18 59 -4 30 -9 67 -12 82 -4 19 5 49 26
94 l31 66 27 -17 c15 -10 37 -27 50 -38z m-978 -27 c30 -25 32 -30 14 -30 -28
0 -74 22 -74 37 0 6 -6 14 -12 16 -7 3 -2 6 12 6 14 0 41 -13 60 -29z m426 15
c-1 -8 -8 -21 -14 -27 -19 -19 -14 -32 6 -17 11 9 9 5 -4 -11 -33 -38 -56 -90
-51 -111 4 -14 -5 -26 -31 -44 -19 -13 -39 -22 -44 -19 -5 3 -18 -2 -28 -11
-14 -13 -30 -16 -59 -12 -23 3 -41 1 -43 -5 -3 -7 -16 -4 -35 6 -18 9 -45 16
-61 16 -16 0 -37 9 -47 20 -10 11 -24 20 -32 20 -10 0 -11 5 -3 19 12 23 3 54
-14 44 -6 -4 -6 0 2 9 9 11 9 18 2 21 -6 3 -5 4 2 3 7 -2 12 -8 11 -14 -2 -6
9 -9 25 -8 15 2 51 -5 80 -15 58 -20 117 -17 165 8 15 7 33 13 40 12 22 -3 77
23 87 41 15 28 13 30 -16 20 -14 -6 -42 -10 -62 -10 l-37 1 24 20 c14 11 37
23 53 26 15 3 33 12 39 19 15 19 48 18 45 -1z m-166 -4 c0 -5 -11 -8 -25 -6
-38 4 -43 15 -7 15 18 0 32 -4 32 -9z m754 -198 c-9 -18 -23 -33 -31 -33 -7 0
-13 -6 -13 -14 0 -15 -37 -29 -45 -16 -2 4 19 47 48 95 l52 88 3 -44 c2 -28
-3 -56 -14 -76z m-54 -1653 c0 -31 -30 -56 -55 -46 -16 6 -9 76 9 88 19 13 46
-12 46 -42z m83 30 c-4 -14 0 -20 10 -20 9 0 18 8 20 18 4 16 5 16 6 -1 1 -21
-26 -34 -41 -19 -6 6 -8 18 -5 26 9 23 16 20 10 -4z m749 -25 c-2 -19 -6 -35
-8 -35 -2 0 -4 16 -4 35 0 19 4 35 8 35 4 0 6 -16 4 -35z m36 -25 c0 -9 -3 -7
-8 5 -8 19 -9 19 -9 1 -1 -11 -3 -17 -6 -14 -3 3 -2 20 2 39 7 33 7 33 14 9 4
-14 7 -32 7 -40z m-678 43 c-44 -14 -45 -16 -20 -23 25 -8 25 -8 3 -15 -12 -4
-24 -14 -26 -24 -3 -9 -5 3 -6 27 -1 41 0 42 32 41 17 0 25 -3 17 -6z m97 -55
c-2 -13 -4 -3 -4 22 0 25 2 35 4 23 2 -13 2 -33 0 -45z m-237 42 c0 -5 -4 -10
-10 -10 -5 0 -10 -12 -11 -27 l-1 -28 -7 25 c-4 14 -6 31 -3 38 5 14 32 16 32
2z m270 -24 c0 -19 -4 -38 -10 -41 -6 -4 -10 10 -10 34 0 23 5 41 10 41 6 0
10 -15 10 -34z m484 26 c9 -15 -6 -52 -20 -52 -20 0 -29 27 -14 45 14 17 26
19 34 7z m-546 -25 c2 -11 -3 -17 -15 -17 -15 0 -16 -2 -3 -10 13 -8 13 -10
-2 -10 -22 0 -31 15 -23 41 8 24 38 22 43 -4z m334 -4 l16 -27 13 27 c17 38
26 34 21 -10 -4 -29 -6 -33 -12 -18 -7 19 -7 19 -18 0 -10 -19 -11 -19 -17 -2
-10 24 -23 21 -28 -5 -3 -13 -4 -4 -3 19 0 24 3 43 6 43 3 0 13 -12 22 -27z
m151 20 c-7 -2 -14 -17 -14 -31 -1 -18 -3 -21 -6 -9 -6 24 3 47 19 46 10 0 10
-2 1 -6z m-406 -50 c-3 -10 -5 -2 -5 17 0 19 2 27 5 18 2 -10 2 -26 0 -35z
m71 19 c3 -17 -2 -25 -17 -29 -25 -6 -25 -8 -2 -53 l19 -35 10 35 c6 19 11 28
11 19 1 -9 -5 -31 -12 -49 l-14 -32 -26 55 c-15 30 -27 68 -27 86 0 29 3 32
28 29 19 -2 28 -9 30 -26z m46 13 c-4 -8 -2 -15 4 -15 6 0 13 6 15 13 3 7 6 5
6 -5 1 -11 -6 -18 -16 -18 -16 0 -16 -2 -3 -11 12 -8 12 -10 -5 -7 -23 4 -33
37 -13 49 18 12 18 11 12 -6z m222 -2 c-1 -10 4 -19 9 -20 6 -1 10 7 9 17 0
11 3 20 8 20 14 0 9 -37 -7 -50 -8 -6 -19 -9 -25 -5 -11 7 -14 38 -3 48 9 10
10 9 9 -10z m-573 0 c-7 -2 -21 -2 -30 0 -10 3 -4 5 12 5 17 0 24 -2 18 -5z
m-23 -48 c-10 -12 -10 -19 -2 -27 18 -18 14 -38 -5 -39 -16 0 -16 -1 1 -8 15
-6 16 -10 7 -15 -8 -5 -19 -2 -29 8 -14 13 -14 19 -2 43 17 34 31 53 37 53 3
0 0 -7 -7 -15z m669 -57 c1 -22 -4 -28 -19 -28 -23 0 -26 13 -6 29 7 6 12 23
9 39 -3 23 -2 24 6 7 5 -11 10 -32 10 -47z m-737 24 l17 33 0 -50 c-1 -37 -3
-43 -8 -25 -6 21 -8 22 -14 8 -3 -10 -11 -18 -17 -18 -5 0 -10 8 -10 18 0 14
-2 15 -10 2 -7 -11 -10 -4 -9 25 l0 40 17 -33 16 -33 18 33z m-87 8 c-3 -5
-14 -10 -23 -10 -15 0 -15 2 -2 10 20 13 33 13 25 0z m235 -31 c0 -36 -2 -40
-22 -37 -17 2 -24 11 -26 31 -3 25 9 37 46 46 1 1 2 -17 2 -40z m511 16 c5 4
9 -7 9 -23 0 -17 -6 -32 -15 -36 -12 -4 -15 4 -14 42 1 26 3 39 6 29 2 -9 9
-15 14 -12z m111 13 c-5 -7 -12 -24 -15 -38 -3 -18 -5 -15 -6 13 -1 28 3 37
15 37 12 0 14 -3 6 -12z m58 -38 c6 0 10 9 10 21 0 15 -5 19 -15 15 -8 -3 -15
-1 -15 4 0 19 38 10 43 -10 7 -26 -18 -47 -37 -31 -11 9 -15 9 -19 -1 -3 -7
-6 3 -6 22 l0 35 15 -27 c8 -16 19 -28 24 -28z m-615 30 c4 -6 1 -9 -7 -8 -7
2 -13 -6 -13 -17 0 -11 6 -19 13 -17 6 1 12 -2 12 -8 0 -16 -27 -11 -34 6 -13
33 13 70 29 44z m309 -34 c1 -20 -2 -36 -6 -36 -11 0 -21 48 -14 66 9 24 18
11 20 -30z m356 34 c0 -5 -2 -10 -4 -10 -3 0 -8 5 -11 10 -3 6 -1 10 4 10 6 0
11 -4 11 -10z m-953 -21 c-2 -26 -46 -46 -58 -27 -10 16 8 38 26 32 7 -3 16
-1 20 5 10 17 14 13 12 -10z m240 -26 c-3 -10 -5 -2 -5 17 0 19 2 27 5 18 2
-10 2 -26 0 -35z m118 17 c0 -29 -32 -41 -41 -16 -9 24 4 48 23 44 12 -2 18
-12 18 -28z m336 16 c-5 -6 -11 -22 -14 -36 -3 -19 -5 -17 -6 11 -1 25 3 36
14 36 9 0 11 -4 6 -11z m66 -18 c-3 -7 -5 -2 -5 12 0 14 2 19 5 13 2 -7 2 -19
0 -25z m239 5 c-3 -8 -6 -17 -6 -19 0 -2 -4 -4 -10 -4 -5 0 -10 11 -10 25 0
18 4 23 16 18 8 -3 13 -12 10 -20z m-471 7 c-3 -5 -2 -10 4 -10 5 0 12 6 14
13 3 7 6 5 6 -5 1 -10 -6 -18 -15 -18 -8 0 -12 -5 -9 -10 4 -6 11 -7 17 -4 7
4 8 2 4 -4 -11 -18 -24 -14 -36 8 -11 21 -6 40 11 40 6 0 7 -4 4 -10z m130 -1
c4 -6 4 -13 0 -17 -3 -3 -10 -1 -14 7 -7 10 -10 9 -14 -3 -4 -11 -1 -16 10
-16 13 0 14 -3 6 -11 -14 -14 -33 -3 -33 20 0 30 31 44 45 20z m-470 -95 c18
-45 20 -63 3 -46 -15 15 -48 16 -48 0 0 -6 -3 -8 -7 -5 -5 6 25 87 33 87 2 0
11 -16 19 -36z m595 6 c0 -11 -4 -20 -9 -20 -5 0 -7 9 -4 20 3 11 7 20 9 20 2
0 4 -9 4 -20z m-514 -30 c2 -27 1 -29 -3 -7 -5 33 -25 31 -34 -4 -6 -20 -7
-18 -8 12 -1 32 2 36 22 35 18 -1 22 -7 23 -36z m186 0 c2 -22 0 -40 -4 -40
-5 0 -8 11 -8 24 0 14 -5 28 -11 32 -8 4 -7 9 2 15 8 5 15 9 15 9 1 0 4 -18 6
-40z m274 5 c0 -21 -3 -30 -8 -22 -10 16 -10 57 0 57 4 0 8 -16 8 -35z m-388
2 c2 -12 -3 -17 -20 -18 -23 -1 -23 -1 2 -9 l25 -8 -27 -1 c-30 -1 -40 15 -26
42 11 22 41 18 46 -6z m67 13 c3 -6 -1 -7 -9 -4 -21 8 -20 -6 1 -21 17 -13 10
-35 -12 -35 -8 0 -17 5 -21 11 -4 8 0 9 15 4 12 -3 21 -2 21 4 0 5 -9 13 -20
16 -11 3 -20 10 -20 14 0 20 34 29 45 11z m222 -42 c-2 -13 -4 -5 -4 17 -1 22
1 32 4 23 2 -10 2 -28 0 -40z m43 42 c-12 -8 -12 -10 3 -16 19 -7 23 -29 6
-40 -6 -3 -16 -1 -22 6 -9 10 -8 12 6 7 21 -8 23 8 2 17 -21 8 -19 36 3 36 14
0 15 -2 2 -10z m-150 -10 c8 13 10 12 10 -2 0 -10 -7 -18 -15 -18 -8 0 -15 -4
-15 -10 0 -5 8 -7 18 -3 14 5 15 3 4 -8 -10 -11 -15 -11 -28 3 -10 10 -14 23
-10 34 6 16 8 16 17 4 8 -13 10 -13 19 0z m80 -32 c0 -20 -35 -25 -46 -7 -4 8
0 9 15 4 11 -3 21 -2 21 3 0 5 -9 12 -20 15 -11 3 -20 10 -20 15 0 6 9 6 25
-1 14 -7 25 -20 25 -29z m180 10 c0 -4 -7 -8 -15 -8 -8 0 -15 4 -15 8 0 5 7 9
15 9 8 0 15 -4 15 -9z m-2901 -670 c0 -149 -24 -303 -46 -303 -17 0 -73 75
-73 99 0 28 103 346 113 346 4 0 7 -64 6 -142z m3184 -221 c38 -31 39 -34 44
-113 3 -45 2 -88 -3 -96 -13 -23 -111 -98 -118 -91 -20 20 11 333 33 333 3 0
23 -15 44 -33z m-3383 -66 c0 -3 -4 -12 -9 -19 -6 -10 -10 -7 -13 11 -4 18 -1
24 9 20 7 -3 13 -8 13 -12z m3914 7 c3 3 6 0 6 -7 0 -7 4 -10 9 -7 4 3 27 -12
51 -34 37 -35 40 -40 24 -46 -10 -3 -36 -13 -56 -21 -20 -9 -48 -13 -62 -11
-14 3 -27 0 -30 -6 -6 -15 -26 13 -26 37 0 14 5 17 23 12 19 -5 18 -3 -8 19
-16 14 -35 26 -42 26 -21 0 -22 16 -1 17 12 1 28 9 36 16 10 11 22 13 42 7 16
-5 31 -6 34 -2z m-119 -146 c16 -11 16 -32 0 -32 -10 0 -13 -10 -11 -37 2 -24
-1 -41 -11 -48 -15 -11 -8 -49 8 -39 5 3 9 0 9 -5 0 -18 -5 -26 -15 -26 -5 0
-16 -4 -23 -9 -18 -11 -54 -1 -82 24 -16 14 -26 36 -30 68 -6 47 -5 47 24 49
16 1 33 9 37 16 5 7 21 12 38 11 17 -1 30 1 29 5 -3 28 7 38 27 23z m112 -12
c-1 -21 -10 -18 -13 5 -1 8 2 15 6 15 5 0 8 -9 7 -20z m-1639 -39 c9 -17 27
-35 39 -40 21 -10 42 -56 30 -67 -7 -8 -110 41 -126 59 -12 15 -11 17 5 18 11
1 23 1 28 0 5 -1 5 4 -1 11 -5 7 -13 21 -16 31 -11 29 22 20 41 -12z m1336 20
c3 -5 -1 -14 -8 -20 -12 -10 -13 -8 -9 8 6 23 9 25 17 12z m-3514 -61 c0 -5
-5 -10 -11 -10 -5 0 -7 5 -4 10 3 6 8 10 11 10 2 0 4 -4 4 -10z m3470 -30 c0
-5 -2 -10 -4 -10 -3 0 -8 5 -11 10 -3 6 -1 10 4 10 6 0 11 -4 11 -10z m65 -8
c-3 -3 -11 0 -18 7 -9 10 -8 11 6 5 10 -3 15 -9 12 -12z m-1438 -18 c-3 -3
-12 -4 -19 -1 -8 3 -5 6 6 6 11 1 17 -2 13 -5z m1213 -11 c1 -17 2 -17 14 0
11 14 23 17 53 13 62 -7 85 -14 105 -33 10 -9 26 -18 35 -19 9 -2 19 -7 22
-12 3 -5 19 -13 35 -19 33 -10 42 -36 19 -58 -10 -11 -20 -12 -32 -5 -23 12
-30 5 -25 -25 6 -32 -13 -41 -37 -19 -10 9 -19 13 -19 8 0 -5 -9 2 -19 15 -18
24 -41 22 -41 -3 0 -7 -9 -21 -20 -31 -11 -10 -20 -24 -20 -30 0 -7 -6 -18
-14 -24 -11 -10 -16 -8 -21 8 -8 27 -39 38 -32 12 3 -11 -1 -25 -9 -32 -8 -6
-14 -8 -14 -3 0 5 -9 -4 -19 -20 -11 -17 -17 -35 -14 -40 4 -6 -5 -1 -19 12
-13 12 -28 19 -32 15 -4 -4 -24 -8 -44 -8 -29 0 -37 -4 -36 -18 1 -9 -4 -17
-11 -17 -6 0 -20 -9 -30 -20 -21 -24 -45 -26 -45 -5 0 13 -4 14 -21 4 -17 -9
-23 -8 -30 2 -15 23 -5 63 18 75 13 6 31 18 40 26 10 9 37 21 61 27 37 10 42
15 42 41 0 28 1 29 31 18 37 -13 48 -4 26 20 -22 24 -21 32 1 32 16 1 16 1 0
14 -20 15 -23 26 -8 26 13 0 40 27 63 63 20 30 47 36 47 10z m-1173 1 c-3 -3
-12 -4 -19 -1 -8 3 -5 6 6 6 11 1 17 -2 13 -5z m-2129 -26 c-2 -6 -10 -14 -16
-16 -7 -2 -10 2 -6 12 7 18 28 22 22 4z m2185 -48 c-3 -12 -8 -19 -11 -16 -5
6 5 36 12 36 2 0 2 -9 -1 -20z m-1585 -301 c1 -22 -2 -39 -8 -39 -5 0 -10 7
-10 15 0 8 -4 15 -9 15 -15 0 -24 52 -10 61 19 11 34 -10 37 -52z m2315 -46
c-7 -2 -21 -2 -30 0 -10 3 -4 5 12 5 17 0 24 -2 18 -5z m-68 -61 c2 -7 0 -10
-5 -7 -6 3 -10 1 -10 -5 0 -8 -6 -8 -20 0 -11 6 -18 15 -15 20 8 13 44 8 50
-8z m-57 -20 c2 -7 -2 -10 -12 -6 -9 3 -16 11 -16 16 0 13 23 5 28 -10z
m-2335 -309 c-7 -2 -13 -11 -13 -19 0 -8 -4 -14 -9 -14 -5 0 -12 -11 -15 -25
-5 -21 -10 -24 -39 -18 -39 7 -39 7 -32 24 6 14 91 59 110 58 6 0 4 -3 -2 -6z
m1543 -24 c-2 -17 -12 -39 -20 -48 -9 -10 -14 -21 -11 -24 3 -4 2 -5 -1 -2 -4
2 -13 -2 -21 -10 -24 -24 -28 -18 -27 42 0 57 0 57 31 57 17 1 35 4 39 9 13
13 15 8 10 -24z m-1736 -103 c0 -2 -7 -7 -16 -10 -8 -3 -12 -2 -9 4 6 10 25
14 25 6z m2243 -236 c8 -65 1 -79 -40 -83 -30 -4 -68 14 -56 27 4 4 8 13 9 21
3 23 67 106 75 98 3 -5 9 -33 12 -63z m-230 -17 c-3 -7 -9 -10 -14 -7 -14 8
-11 21 5 21 8 0 12 -6 9 -14z m17 -64 c0 -5 -4 -8 -9 -5 -5 4 -11 0 -14 -6 -2
-7 -8 -10 -12 -6 -4 4 -4 11 0 17 8 14 35 14 35 0z m-155 -99 c-11 -5 -27 -9
-35 -9 -9 0 -8 4 5 9 11 5 27 9 35 9 9 0 8 -4 -5 -9z m345 -14 c0 -3 -4 -8
-10 -11 -5 -3 -10 -1 -10 4 0 6 5 11 10 11 6 0 10 -2 10 -4z m-177 -39 c-2 -4
-9 -5 -14 -2 -5 4 -9 2 -9 -4 0 -5 6 -12 13 -15 8 -4 7 -5 -3 -5 -31 2 -39 -1
-34 -16 4 -10 -2 -18 -17 -24 -19 -7 -27 -5 -41 12 -35 44 -15 67 58 64 28 -1
50 -5 47 -10z m-127 -43 c8 -19 17 -48 20 -63 5 -25 2 -29 -20 -33 -24 -5 -29
0 -51 45 l-24 51 21 18 c30 25 37 23 54 -18z m134 -24 c0 -5 -5 -10 -11 -10
-5 0 -7 5 -4 10 3 6 8 10 11 10 2 0 4 -4 4 -10z m-213 -20 c-1 -22 -12 -26
-22 -10 -4 6 -11 8 -16 5 -5 -3 -6 1 -3 9 9 24 43 20 41 -4z m-179 -81 c-7 -5
-8 -9 -3 -9 6 -1 -3 -7 -20 -14 -29 -13 -65 -6 -65 13 0 15 74 39 88 28 11 -8
11 -12 0 -18z m419 13 c7 -4 11 -15 9 -25 -3 -22 -125 -149 -136 -142 -5 3
-23 -9 -40 -26 -36 -36 -88 -50 -140 -36 l-35 9 29 15 c16 9 39 24 50 34 11
11 39 28 63 40 24 11 43 25 43 30 0 5 5 9 10 9 6 0 33 23 62 50 52 50 63 56
85 42z m-630 -128 c-3 -3 -12 -4 -19 -1 -8 3 -5 6 6 6 11 1 17 -2 13 -5z m193
-164 c0 -5 -11 -10 -24 -10 -14 0 -28 5 -31 10 -4 6 7 10 24 10 17 0 31 -4 31
-10z m712 -338 c-7 -2 -10 -8 -7 -13 3 -4 -6 -11 -20 -15 -14 -3 -29 -13 -33
-20 -10 -18 -112 -56 -112 -42 0 7 -4 7 -13 0 -24 -20 -94 -39 -111 -30 -9 5
-21 6 -27 2 -8 -4 -8 -1 -1 13 6 10 23 25 39 33 15 8 35 20 43 26 8 7 31 15
50 17 19 3 36 6 38 7 4 4 16 7 70 15 29 4 55 11 58 16 2 4 12 5 21 2 11 -4 13
-8 5 -11z"/>
<path d="M2868 8153 c-51 -40 -70 -70 -76 -120 -4 -36 -1 -48 16 -63 12 -11
24 -20 27 -20 3 0 17 -12 30 -27 21 -25 22 -29 7 -35 -13 -5 -10 -7 9 -7 15
-1 46 -8 70 -17 33 -11 69 -14 139 -11 141 7 170 24 170 102 0 19 6 46 14 58
13 19 13 24 -2 43 -35 42 -102 82 -149 89 -27 3 -70 13 -97 21 -76 22 -117 18
-158 -13z"/>
<path d="M3637 8144 c-43 -13 -105 -24 -137 -25 -32 -1 -62 -5 -67 -8 -12 -9
-12 -91 0 -91 6 0 7 -18 3 -49 -3 -27 -3 -56 0 -65 7 -18 71 -49 88 -43 6 2
30 -6 54 -19 30 -17 59 -24 95 -24 83 0 197 42 217 81 6 10 19 19 30 19 10 0
32 11 48 25 24 20 30 32 27 55 -5 38 -12 50 -30 50 -8 0 -26 12 -42 26 -15 14
-52 41 -82 60 -63 41 -92 42 -204 8z"/>
<path d="M3306 8028 c3 -5 10 -6 15 -3 13 9 11 12 -6 12 -8 0 -12 -4 -9 -9z"/>
<path d="M4080 5440 c0 -25 4 -31 18 -28 11 2 17 12 17 28 0 16 -6 26 -17 28
-14 3 -18 -3 -18 -28z"/>
<path d="M4910 5440 c0 -5 5 -10 10 -10 6 0 10 5 10 10 0 6 -4 10 -10 10 -5 0
-10 -4 -10 -10z"/>
<path d="M4360 5430 c0 -5 5 -10 10 -10 6 0 10 5 10 10 0 6 -4 10 -10 10 -5 0
-10 -4 -10 -10z"/>
<path d="M4502 5413 c5 -25 28 -28 28 -4 0 12 -6 21 -16 21 -9 0 -14 -7 -12
-17z"/>
<path d="M4195 5330 c-3 -5 -1 -10 4 -10 6 0 11 5 11 10 0 6 -2 10 -4 10 -3 0
-8 -4 -11 -10z"/>
<path d="M4253 5324 c-3 -8 -1 -20 6 -27 8 -8 11 -4 11 16 0 30 -7 35 -17 11z"/>
<path d="M4397 5323 c-13 -12 -7 -33 8 -33 8 0 15 9 15 20 0 20 -11 26 -23 13z"/>
<path d="M4226 5221 c-4 -5 -2 -12 3 -15 5 -4 12 -2 15 3 4 5 2 12 -3 15 -5 4
-12 2 -15 -3z"/>
<path d="M4375 5210 c-3 -5 1 -10 9 -10 9 0 16 5 16 10 0 6 -4 10 -9 10 -6 0
-13 -4 -16 -10z"/>
<path d="M5468 4003 c7 -3 16 -2 19 1 4 3 -2 6 -13 5 -11 0 -14 -3 -6 -6z"/>
<path d="M5210 3850 c0 -5 5 -10 11 -10 5 0 7 5 4 10 -3 6 -8 10 -11 10 -2 0
-4 -4 -4 -10z"/>
<path d="M4220 1661 c0 -7 -5 -9 -12 -5 -7 5 -8 3 -3 -5 5 -9 10 -10 18 -2 6
6 8 14 4 18 -4 3 -7 1 -7 -6z"/>
<path d="M4248 8107 l-37 -32 14 -58 c7 -33 15 -61 18 -63 2 -2 14 18 26 44
16 33 21 62 19 94 l-3 47 -37 -32z"/>
<path d="M2493 7665 c0 -33 2 -45 4 -27 2 18 2 45 0 60 -2 15 -4 0 -4 -33z"/>
<path d="M4286 7505 c-9 -26 -7 -32 5 -12 6 10 9 21 6 23 -2 3 -7 -2 -11 -11z"/>
<path d="M4306 7493 c-6 -14 -5 -15 5 -6 7 7 10 15 7 18 -3 3 -9 -2 -12 -12z"/>
<path d="M2540 7455 c0 -5 5 -17 10 -25 5 -8 10 -10 10 -5 0 6 -5 17 -10 25
-5 8 -10 11 -10 5z"/>
<path d="M4276 7423 c-6 -14 -5 -15 5 -6 7 7 10 15 7 18 -3 3 -9 -2 -12 -12z"/>
<path d="M2530 7411 c0 -6 4 -13 10 -16 6 -3 7 1 4 9 -7 18 -14 21 -14 7z"/>
<path d="M2565 7388 c4 -13 11 -27 16 -33 5 -5 4 5 -2 23 -12 36 -24 44 -14
10z"/>
<path d="M2560 7345 c0 -5 5 -17 10 -25 5 -8 10 -10 10 -5 0 6 -5 17 -10 25
-5 8 -10 11 -10 5z"/>
<path d="M1415 4480 c4 -6 11 -8 16 -5 14 9 11 15 -7 15 -8 0 -12 -5 -9 -10z"/>
<path d="M2729 4453 c-6 -16 -15 -36 -21 -46 -5 -11 -7 -21 -4 -24 2 -3 12 9
20 26 9 16 23 34 32 39 9 5 14 14 10 21 -12 19 -26 12 -37 -16z"/>
<path d="M1315 4440 c-3 -5 1 -10 10 -10 9 0 13 5 10 10 -3 6 -8 10 -10 10 -2
0 -7 -4 -10 -10z"/>
<path d="M2830 4390 c0 -14 46 -60 59 -60 6 0 10 11 9 25 -2 17 -11 28 -32 35
-36 12 -36 12 -36 0z"/>
<path d="M2620 4376 c0 -2 8 -10 18 -17 15 -13 16 -12 3 4 -13 16 -21 21 -21
13z"/>
<path d="M2582 4328 c9 -7 25 -18 35 -25 17 -12 17 -13 1 -23 -10 -6 -18 -18
-18 -25 0 -8 -3 -15 -7 -15 -9 0 -33 -48 -33 -66 0 -7 -8 -19 -19 -26 -29 -20
-75 -79 -57 -72 12 5 15 2 9 -12 -4 -11 -3 -15 5 -10 6 4 12 -3 14 -16 3 -21
3 -21 22 -2 19 19 19 18 13 -34 -4 -30 -2 -52 3 -52 6 0 10 6 10 13 0 15 42
18 52 3 4 -6 8 -26 8 -45 0 -50 38 -110 84 -132 22 -10 40 -18 41 -16 1 1 17
25 35 52 25 37 34 63 36 100 2 28 10 67 18 87 24 56 20 70 -29 119 -25 24 -66
72 -92 107 -44 61 -71 82 -123 96 -22 6 -23 5 -8 -6z"/>
<path d="M1470 4200 c0 -5 5 -10 11 -10 5 0 7 5 4 10 -3 6 -8 10 -11 10 -2 0
-4 -4 -4 -10z"/>
<path d="M1570 4126 c0 -8 5 -18 10 -21 6 -3 10 3 10 14 0 12 -4 21 -10 21 -5
0 -10 -6 -10 -14z"/>
<path d="M1475 4110 c3 -5 8 -10 11 -10 2 0 4 5 4 10 0 6 -5 10 -11 10 -5 0
-7 -4 -4 -10z"/>
<path d="M3140 3941 c0 -14 -56 -33 -86 -28 -24 3 -22 4 11 6 32 2 36 4 20 11
-33 14 -95 12 -101 -4 -8 -20 20 -74 57 -114 16 -17 27 -37 24 -42 -4 -6 10
-10 34 -10 23 0 41 -5 41 -11 0 -10 54 16 78 39 7 6 18 12 23 12 5 0 9 11 9
25 0 14 -4 25 -9 25 -5 0 -17 20 -26 44 -12 30 -22 43 -31 39 -8 -3 -14 0 -14
6 0 6 -7 11 -15 11 -8 0 -15 -4 -15 -9z"/>
<path d="M3567 3884 c-19 -20 -40 -47 -47 -60 -12 -21 -10 -27 28 -63 l41 -40
45 15 c30 10 47 23 52 37 3 12 15 32 26 44 11 12 18 31 16 45 -2 19 -10 23
-46 26 -26 2 -45 9 -49 18 -9 23 -28 16 -66 -22z m138 -14 c8 -13 -5 -13 -25
0 -13 8 -13 10 2 10 9 0 20 -4 23 -10z"/>
<path d="M4110 3836 c0 -2 7 -9 15 -16 9 -7 15 -8 15 -2 0 5 -7 12 -15 16 -8
3 -15 4 -15 2z"/>
<path d="M2818 3715 c10 -15 9 -29 -2 -36 -10 -8 45 -39 71 -40 10 0 13 -3 6
-6 -8 -3 -2 -13 17 -29 18 -15 27 -31 23 -40 -3 -9 6 -26 25 -42 16 -15 32
-38 35 -52 3 -16 5 -10 6 18 1 41 -29 119 -51 133 -5 3 -10 10 -11 15 0 5 -18
28 -40 51 -27 29 -47 42 -63 41 -13 -1 -20 -7 -16 -13z"/>
<path d="M3643 3522 c-13 -8 -16 -24 -14 -77 1 -33 4 -37 12 -22 6 9 8 26 4
36 -3 11 -1 22 5 26 6 4 10 -7 10 -29 0 -35 26 -74 41 -59 11 12 14 76 3 94
-12 22 -47 39 -61 31z m47 -88 c0 -14 -4 -23 -10 -19 -5 3 -10 15 -10 26 0 10
5 19 10 19 6 0 10 -12 10 -26z"/>
<path d="M3654 3362 c29 -32 86 -59 86 -42 0 10 -69 57 -98 67 -11 4 -6 -6 12
-25z"/>
<path d="M4445 3360 c-3 -5 -1 -10 4 -10 6 0 11 5 11 10 0 6 -2 10 -4 10 -3 0
-8 -4 -11 -10z"/>
<path d="M2661 2689 c-25 -34 -22 -59 8 -59 17 0 51 51 51 79 0 22 -37 10 -59
-20z"/>
<path d="M2830 2640 c0 -17 62 -70 81 -70 23 0 25 23 3 41 -21 18 -84 39 -84
29z"/>
<path d="M3116 2601 c-9 -10 -30 -21 -47 -25 -45 -9 -35 -32 22 -50 28 -10 54
-14 57 -11 9 9 4 87 -6 97 -5 5 -16 0 -26 -11z"/>
<path d="M2683 2549 c4 -28 15 -65 25 -82 11 -18 30 -60 42 -94 12 -35 29 -68
36 -74 8 -6 14 -20 14 -31 0 -27 17 -56 61 -103 61 -65 87 -108 78 -130 -7
-19 -8 -19 -8 2 -1 12 -5 24 -9 27 -9 5 -7 -78 4 -111 3 -14 2 -23 -4 -23 -6
0 -8 -9 -5 -19 6 -25 -23 -68 -58 -87 -16 -8 -29 -12 -29 -10 0 3 -10 -1 -23
-7 -13 -7 -57 -12 -98 -12 -53 0 -77 -4 -85 -15 -7 -8 -43 -20 -80 -27 -150
-29 -144 -23 -115 -111 25 -75 21 -92 -22 -85 -18 3 -37 9 -44 14 -21 18 -62
-1 -66 -29 -3 -23 -4 -24 -11 -9 -12 25 21 162 43 180 50 42 208 98 271 95 42
-1 83 7 171 33 64 19 67 21 72 56 7 39 -24 127 -50 141 -7 5 -16 32 -19 63 -5
39 -17 71 -45 114 -36 58 -91 188 -104 249 -7 34 -15 28 -48 -34 -77 -144
-148 -261 -245 -407 -51 -76 -77 -127 -83 -158 -5 -26 -31 -82 -59 -128 -27
-44 -50 -86 -50 -93 0 -6 -11 -37 -25 -68 -18 -40 -29 -54 -40 -50 -8 4 -15
15 -15 25 0 26 -16 24 -34 -3 -22 -36 -30 -70 -16 -78 19 -12 -35 -67 -77 -77
-20 -4 -39 -15 -41 -22 -6 -19 45 -6 78 20 14 11 48 35 77 54 28 19 61 46 72
61 18 23 29 27 77 27 35 1 58 -4 63 -12 7 -10 38 -11 157 -3 82 6 189 8 237 5
l89 -6 -5 -26 c-8 -37 -22 -68 -62 -131 -19 -30 -35 -62 -35 -70 1 -8 10 3 22
25 11 22 30 51 43 65 24 27 40 65 51 120 16 86 102 261 154 315 56 58 150 274
183 423 l5 23 -32 -19 -32 -19 -42 39 c-40 37 -70 43 -58 12 3 -8 4 -14 2 -14
-4 0 -89 129 -131 198 -35 59 -106 142 -121 142 -4 0 -4 -23 -1 -51z m-133
-838 c15 -28 12 -51 -5 -51 -8 0 -15 -4 -15 -9 0 -5 -9 -11 -20 -14 -24 -6
-24 -4 -4 50 18 47 28 53 44 24z m-69 -138 c-8 -15 -10 -15 -11 -2 0 17 10 32
18 25 2 -3 -1 -13 -7 -23z m-142 -34 c-9 -5 -15 -4 -18 2 -2 6 3 15 10 20 9 5
15 4 18 -2 2 -6 -3 -15 -10 -20z m-295 -28 c-4 -17 -9 -30 -11 -27 -3 2 -2 19
2 36 4 17 9 30 11 27 2 -2 1 -18 -2 -36z"/>
<path d="M2950 2573 c0 -12 56 -44 64 -36 11 11 7 20 -11 26 -10 2 -26 8 -35
12 -10 4 -18 3 -18 -2z"/>
<path d="M2555 1788 c1 -7 9 -11 16 -9 8 2 20 4 27 4 8 0 9 4 3 10 -7 7 -15 6
-25 -2 -10 -8 -16 -9 -19 -1 -3 6 -4 5 -2 -2z"/>
<path d="M3816 1530 c-3 -8 -8 -49 -10 -90 -7 -107 -17 -160 -28 -160 -5 0 -8
15 -6 32 2 25 -1 34 -14 36 -14 3 -18 -3 -18 -27 0 -32 38 -71 70 -71 10 0 29
-9 43 -20 29 -23 72 -26 80 -6 7 19 -3 127 -14 146 -5 10 -8 -1 -9 -31 0 -51
-17 -109 -31 -109 -5 0 -9 12 -9 26 0 14 -4 22 -10 19 -5 -3 -19 -1 -30 5 -18
10 -20 18 -15 63 3 29 10 75 16 102 7 33 7 58 1 75 -8 19 -11 21 -16 10z"/>
<path d="M1716 1453 c-25 -27 -32 -60 -11 -56 12 2 49 72 42 79 -3 3 -17 -7
-31 -23z"/>
<path d="M4019 1438 c-7 -15 -5 -108 2 -108 5 0 9 25 9 55 0 45 -5 67 -11 53z"/>
<path d="M1535 1400 c-3 -5 -2 -10 4 -10 5 0 13 5 16 10 3 6 2 10 -4 10 -5 0
-13 -4 -16 -10z"/>
<path d="M1566 1363 c-4 -4 -17 -8 -29 -8 -33 0 -27 -29 8 -36 59 -13 123 -10
129 6 4 12 -3 15 -35 15 -26 0 -42 5 -45 15 -7 16 -17 19 -28 8z"/>
<path d="M1716 1344 c-27 -27 -18 -34 43 -34 42 0 62 5 72 17 13 15 11 16 -12
10 -16 -4 -33 -1 -45 8 -25 19 -39 19 -58 -1z"/>
<path d="M4092 1330 c0 -14 2 -19 5 -12 2 6 2 18 0 25 -3 6 -5 1 -5 -13z"/>
<path d="M4024 1263 c-4 -13 -11 -24 -18 -24 -6 -1 -17 -2 -25 -3 -8 0 -16 -6
-18 -12 -2 -7 13 -11 42 -10 38 1 45 4 45 21 0 11 -5 27 -10 35 -8 13 -11 11
-16 -7z"/>
<path d="M4061 1240 l0 -45 14 40 c8 21 12 41 10 44 -3 2 -5 -2 -5 -10 0 -11
-2 -11 -10 1 -7 11 -10 3 -9 -30z"/>
<path d="M3003 1200 c0 -41 2 -58 4 -37 2 20 2 54 0 75 -2 20 -4 3 -4 -38z"/>
<path d="M2587 1165 c-23 -49 -21 -57 4 -16 11 18 19 37 17 43 -2 5 -11 -7
-21 -27z"/>
<path d="M2660 1090 c-11 -22 -27 -40 -35 -40 -8 0 -15 -8 -15 -17 0 -10 -3
-28 -6 -40 -4 -14 -2 -23 5 -23 6 0 11 5 11 11 0 7 11 22 25 35 14 13 25 34
25 49 0 15 5 35 10 46 6 10 8 19 6 19 -3 0 -15 -18 -26 -40z"/>
<path d="M2793 1108 c-13 -21 -43 -111 -43 -130 0 -23 -16 -23 -24 -2 -4 9 -9
14 -12 11 -4 -3 0 -20 7 -37 20 -44 50 -37 67 15 28 84 32 185 5 143z"/>
<path d="M2556 1095 c-9 -26 -7 -32 5 -12 6 10 9 21 6 23 -2 3 -7 -2 -11 -11z"/>
<path d="M2920 1082 c0 -12 -6 -37 -13 -55 -9 -20 -11 -49 -8 -77 l6 -45 75
10 c64 8 75 13 78 30 3 20 -23 95 -33 95 -2 0 -2 -24 1 -52 l6 -53 -21 33
c-12 19 -29 32 -41 32 -15 0 -20 7 -20 28 -1 15 -7 38 -15 52 -14 25 -14 25
-15 2z m67 -154 c-3 -7 -5 -2 -5 12 0 14 2 19 5 13 2 -7 2 -19 0 -25z"/>
<path d="M2566 1014 c-4 -9 -4 -19 -2 -21 8 -8 26 8 26 23 0 19 -16 18 -24 -2z"/>
<path d="M2675 951 c-9 -15 8 -35 24 -30 8 3 7 10 -2 23 -10 14 -16 16 -22 7z"/>
<path d="M2818 930 c-14 -16 -15 -19 -1 -24 26 -10 33 -7 33 19 0 29 -8 30
-32 5z"/>
</g>
</svg>
